<svg width="992" height="439" viewBox="0 0 992 439" fill="none" xmlns="http://www.w3.org/2000/svg">
<path d="M56.6278 105.694C60.6716 98.1868 66.5061 91.7866 73.62 87.0585L192.989 4L70.6804 205.523C70.6804 205.523 59.9943 187.528 55.8253 178.423C50.6325 166.974 48.0131 154.533 48.1514 141.97C48.2898 129.407 51.1833 117.025 56.6278 105.694ZM7.36265 244.71C8.71059 263.982 14.1748 282.744 23.3904 299.741C32.6046 316.738 45.358 331.576 60.7955 343.263L192.828 435C192.828 435 110.22 316.376 40.5447 198.336C33.4901 185.865 28.7479 172.231 26.5448 158.085C25.5698 151.679 25.5698 145.163 26.5448 138.757C24.7278 142.112 21.2018 148.98 21.2018 148.98C14.1366 163.337 9.32462 178.69 6.93442 194.503C5.55881 211.217 5.70243 228.021 7.36265 244.71ZM343.99 260.683C339.714 251.578 329.135 233.582 329.135 233.582L207.041 435L326.41 351.994C333.523 347.266 339.358 340.867 343.402 333.36C348.847 322.027 351.739 309.646 351.879 297.084C352.017 284.521 349.398 272.079 344.203 260.63L343.99 260.683ZM392.453 194.342C391.105 175.072 385.64 156.308 376.426 139.312C367.211 122.316 354.457 107.477 339.02 95.7912L207.201 4C207.201 4 289.755 122.624 359.485 240.664C366.52 253.139 371.244 266.773 373.431 280.915C374.406 287.321 374.406 293.837 373.431 300.243C375.248 296.888 378.774 290.02 378.774 290.02C385.839 275.663 390.651 260.31 393.04 244.497C394.434 227.784 394.309 210.98 392.667 194.29L392.453 194.342Z" fill="url(#paint0_linear_1_2)"/>
<path d="M616 315H491V117H616V154.343H519.226L531.323 143.06V197.328H606.591V232.791H531.323V288.94L519.226 277.657H616V315Z" fill="url(#paint1_linear_1_2)"/>
<path d="M689.134 315H649V117H689.134L788.256 266.373H776.135V117H816V315H776.135L676.744 165.896H689.134V315Z" fill="url(#paint2_linear_1_2)"/>
<path d="M841.947 173.668C841.947 161.804 844.983 151.378 851.055 142.39C857.306 133.223 865.789 126.032 876.505 120.819C887.399 115.606 899.811 113 913.741 113C927.672 113 939.637 115.517 949.639 120.55C959.818 125.403 967.676 132.324 973.213 141.312C978.928 150.299 981.785 160.995 981.785 173.398H941.87C941.691 165.848 939.012 159.916 933.833 155.602C928.832 151.288 921.957 149.131 913.206 149.131C903.74 149.131 896.15 151.198 890.435 155.332C884.898 159.467 882.13 165.129 882.13 172.319C882.13 178.791 883.827 183.824 887.22 187.419C890.792 190.834 896.239 193.351 903.561 194.969L933.833 201.44C951.157 205.035 964.015 211.236 972.409 220.044C980.803 228.853 985 240.986 985 256.445C985 269.028 981.964 280.083 975.892 289.61C969.82 298.957 961.158 306.237 949.906 311.45C938.834 316.483 925.796 319 910.794 319C896.507 319 883.916 316.573 873.022 311.72C862.306 306.687 854.002 299.676 848.108 290.688C842.215 281.521 839.179 270.915 839 258.872H879.183C879.183 266.421 881.952 272.353 887.488 276.668C893.203 280.802 901.061 282.869 911.062 282.869C921.421 282.869 929.636 280.892 935.708 276.937C941.78 272.803 944.817 267.32 944.817 260.49C944.817 254.378 943.298 249.704 940.262 246.469C937.226 243.053 932.136 240.627 924.993 239.188L894.453 232.717C877.13 229.122 864.003 222.381 855.073 212.495C846.322 202.608 841.947 189.666 841.947 173.668Z" fill="url(#paint3_linear_1_2)"/>
<defs>
<linearGradient id="paint0_linear_1_2" x1="658.372" y1="486.081" x2="428.869" y2="-431.88" gradientUnits="userSpaceOnUse">
<stop stop-color="#44BCF0"/>
<stop offset="0.378795" stop-color="#7298F8"/>
<stop offset="1" stop-color="#A099FF"/>
</linearGradient>
<linearGradient id="paint1_linear_1_2" x1="658.609" y1="485.991" x2="429.381" y2="-431.489" gradientUnits="userSpaceOnUse">
<stop stop-color="#44BCF0"/>
<stop offset="0.378795" stop-color="#7298F8"/>
<stop offset="1" stop-color="#A099FF"/>
</linearGradient>
<linearGradient id="paint2_linear_1_2" x1="658.393" y1="485.991" x2="429.569" y2="-431.704" gradientUnits="userSpaceOnUse">
<stop stop-color="#44BCF0"/>
<stop offset="0.378795" stop-color="#7298F8"/>
<stop offset="1" stop-color="#A099FF"/>
</linearGradient>
<linearGradient id="paint3_linear_1_2" x1="659.063" y1="487.107" x2="427.561" y2="-432.937" gradientUnits="userSpaceOnUse">
<stop stop-color="#44BCF0"/>
<stop offset="0.378795" stop-color="#7298F8"/>
<stop offset="1" stop-color="#A099FF"/>
</linearGradient>
</defs>
</svg>
