<svg width="500" height="500" viewBox="0 0 500 500" fill="none" xmlns="http://www.w3.org/2000/svg">
<path d="M85.9349 119.323C90.5624 110.736 97.239 103.415 105.38 98.0066L241.977 3L102.016 233.513C102.016 233.513 89.7873 212.929 85.0166 202.514C79.0743 189.418 76.0768 175.188 76.2352 160.817C76.3935 146.447 79.7046 132.284 85.9349 119.323ZM29.5593 278.337C31.1018 300.381 37.3547 321.842 47.9003 341.283C58.4445 360.726 73.0386 377.698 90.7041 391.066L241.793 496C241.793 496 147.262 360.311 67.5305 225.292C59.4577 211.027 54.0311 195.431 51.5101 179.25C50.3943 171.923 50.3943 164.469 51.5101 157.142C49.4308 160.98 45.3959 168.836 45.3959 168.836C37.311 185.258 31.8045 202.82 29.0693 220.907C27.4951 240.026 27.6595 259.247 29.5593 278.337ZM414.772 296.607C409.879 286.193 397.773 265.608 397.773 265.608L258.058 496L394.655 401.054C402.794 395.646 409.472 388.326 414.1 379.739C420.33 366.776 423.639 352.614 423.799 338.245C423.958 323.874 420.96 309.642 415.016 296.547L414.772 296.607ZM470.229 220.723C468.687 198.681 462.434 177.218 451.89 157.777C441.344 138.336 426.75 121.362 409.085 107.995L258.24 3C258.24 3 352.709 138.689 432.504 273.708C440.554 287.978 445.96 303.574 448.463 319.75C449.578 327.077 449.578 334.531 448.463 341.858C450.542 338.02 454.577 330.164 454.577 330.164C462.662 313.742 468.168 296.18 470.902 278.093C472.497 258.976 472.354 239.755 470.475 220.663L470.229 220.723Z" fill="url(#paint0_linear_1_7)"/>
<defs>
<linearGradient id="paint0_linear_1_7" x1="323.741" y1="554.429" x2="-179.701" y2="-243.624" gradientUnits="userSpaceOnUse">
<stop stop-color="#44BCF0"/>
<stop offset="0.378795" stop-color="#7298F8"/>
<stop offset="1" stop-color="#A099FF"/>
</linearGradient>
</defs>
</svg>
