<svg width="500" height="500" viewBox="0 0 500 500" fill="none" xmlns="http://www.w3.org/2000/svg">
<path d="M85.9347 119.362C90.5614 110.772 97.2395 103.449 105.379 98.039L241.977 3L102.015 233.591C102.015 233.591 89.7865 213.001 85.0172 202.582C79.074 189.482 76.0766 175.246 76.2349 160.871C76.3934 146.496 79.7041 132.329 85.9347 119.362ZM29.5588 278.431C31.1011 300.483 37.3542 321.951 47.8994 341.398C58.4445 360.847 73.0384 377.825 90.7038 391.198L241.793 496.168C241.793 496.168 147.263 360.433 67.5299 225.368C59.4576 211.098 54.031 195.496 51.5098 179.31C50.3937 171.98 50.3937 164.524 51.5098 157.195C49.4309 161.034 45.3953 168.892 45.3953 168.892C37.3107 185.32 31.8047 202.888 29.0697 220.981C27.4954 240.106 27.6591 259.334 29.5588 278.431ZM414.772 296.707C409.879 286.289 397.773 265.697 397.773 265.697L258.057 496.168L394.655 401.189C402.794 395.779 409.472 388.457 414.099 379.867C420.33 366.9 423.64 352.732 423.799 338.358C423.958 323.983 420.96 309.746 415.016 296.646L414.772 296.707ZM470.229 220.798C468.687 198.747 462.434 177.277 451.89 157.829C441.344 138.382 426.75 121.403 409.084 108.031L258.24 3C258.24 3 352.709 138.735 432.504 273.8C440.554 288.074 445.96 303.676 448.463 319.858C449.578 327.187 449.578 334.644 448.463 341.973C450.542 338.134 454.577 330.275 454.577 330.275C462.661 313.847 468.168 296.28 470.902 278.186C472.497 259.063 472.354 239.835 470.475 220.737L470.229 220.798Z" fill="url(#paint0_linear_3_6)"/>
<defs>
<linearGradient id="paint0_linear_3_6" x1="439.588" y1="656.941" x2="-84.5834" y2="23.6707" gradientUnits="userSpaceOnUse">
<stop stop-color="#DE82FF"/>
<stop offset="1" stop-color="#7F6AFF"/>
</linearGradient>
</defs>
</svg>
