<svg width="413" height="190" viewBox="0 0 413 190" fill="none" xmlns="http://www.w3.org/2000/svg">
<path d="M99.4799 138V122.896H57.7519V98.0641H95.1279V83.6001H57.7519V59.5361H99.4799V44.4321H41.3679V138H99.4799Z" fill="url(#paint0_linear_1_109)"/>
<path d="M132.091 138V71.6961L176.123 138H192.251V44.4321H176.123V110.736L132.219 44.4321H115.963V138H132.091Z" fill="url(#paint1_linear_1_109)"/>
<path d="M205.307 70.5441C205.307 84.8801 213.627 93.9681 229.499 97.4241L244.347 100.752C252.027 102.416 255.227 106.128 255.227 112.4C255.227 120.208 248.315 124.944 237.435 124.944C226.939 124.944 220.539 120.208 220.411 112.272H204.027C204.411 129.04 217.467 139.664 237.435 139.664C258.043 139.664 271.611 128.4 271.611 110.992C271.611 97.0401 263.803 88.8481 247.803 85.3921L233.083 82.1921C225.275 80.4001 221.691 76.6881 221.691 70.0321C221.691 62.2241 228.219 57.3601 238.331 57.3601C247.547 57.3601 253.307 62.0961 253.691 70.1601H270.075C269.563 53.2641 257.531 42.7681 238.587 42.7681C218.875 42.7681 205.307 54.1601 205.307 70.5441Z" fill="url(#paint2_linear_1_109)"/>
<path d="M292.872 62.0961C297.992 62.0961 302.344 57.8721 302.344 52.6241C302.344 47.3761 297.992 43.2801 292.872 43.2801C287.624 43.2801 283.4 47.3761 283.4 52.6241C283.4 57.8721 287.624 62.0961 292.872 62.0961ZM269.96 167.696C274.056 168.848 276.36 169.104 279.304 169.104C293 169.104 300.68 160.4 300.68 146.96V74.7681H285.064V145.168C285.064 151.568 283.272 154.64 277.896 154.64C275.976 154.64 274.696 154.512 272.52 153.872L269.96 167.696Z" fill="url(#paint3_linear_1_109)"/>
<path d="M310.67 118.8C310.67 131.216 320.654 139.664 336.398 139.664C352.014 139.664 362.894 131.728 362.894 118.928C362.894 109.2 357.518 104.336 346.894 101.904L335.502 99.2161C330.126 97.9361 327.31 95.6321 327.31 92.0481C327.31 87.3121 330.894 84.4961 337.038 84.4961C343.054 84.4961 346.638 87.9521 346.766 93.3281H361.614C361.486 81.0401 351.886 72.8481 337.678 72.8481C323.086 72.8481 312.59 80.2721 312.59 92.6881C312.59 102.8 318.094 108.176 329.486 110.736L340.878 113.424C346.51 114.704 348.174 117.008 348.174 120.208C348.174 124.816 344.206 127.76 336.91 127.76C329.742 127.76 325.646 124.304 325.518 118.8H310.67Z" fill="url(#paint4_linear_1_109)"/>
<path opacity="0.4" d="M292.872 62.096C297.992 62.096 302.344 57.872 302.344 52.624C302.344 47.376 297.992 43.28 292.872 43.28C287.624 43.28 283.4 47.376 283.4 52.624C283.4 57.872 287.624 62.096 292.872 62.096ZM269.96 167.696C274.056 168.848 276.36 169.104 279.304 169.104C293 169.104 300.68 160.4 300.68 146.96V74.768H285.064V145.168C285.064 151.568 283.272 154.64 277.896 154.64C275.976 154.64 274.696 154.512 272.52 153.872L269.96 167.696ZM310.67 118.8C310.67 131.216 320.654 139.664 336.398 139.664C352.014 139.664 362.894 131.728 362.894 118.928C362.894 109.2 357.518 104.336 346.894 101.904L335.502 99.216C330.126 97.936 327.31 95.632 327.31 92.048C327.31 87.312 330.894 84.496 337.038 84.496C343.054 84.496 346.638 87.952 346.766 93.328H361.614C361.486 81.04 351.886 72.848 337.678 72.848C323.086 72.848 312.59 80.272 312.59 92.688C312.59 102.8 318.094 108.176 329.486 110.736L340.878 113.424C346.51 114.704 348.174 117.008 348.174 120.208C348.174 124.816 344.206 127.76 336.91 127.76C329.742 127.76 325.646 124.304 325.518 118.8H310.67Z" fill="white"/>
<defs>
<linearGradient id="paint0_linear_1_109" x1="255.531" y1="184.077" x2="194.739" y2="-88.2464" gradientUnits="userSpaceOnUse">
<stop stop-color="#44BCF0"/>
<stop offset="0.378795" stop-color="#7298F8"/>
<stop offset="1" stop-color="#A099FF"/>
</linearGradient>
<linearGradient id="paint1_linear_1_109" x1="255.531" y1="184.077" x2="194.739" y2="-88.2464" gradientUnits="userSpaceOnUse">
<stop stop-color="#44BCF0"/>
<stop offset="0.378795" stop-color="#7298F8"/>
<stop offset="1" stop-color="#A099FF"/>
</linearGradient>
<linearGradient id="paint2_linear_1_109" x1="255.531" y1="184.077" x2="194.739" y2="-88.2464" gradientUnits="userSpaceOnUse">
<stop stop-color="#44BCF0"/>
<stop offset="0.378795" stop-color="#7298F8"/>
<stop offset="1" stop-color="#A099FF"/>
</linearGradient>
<linearGradient id="paint3_linear_1_109" x1="255.531" y1="184.077" x2="194.739" y2="-88.2464" gradientUnits="userSpaceOnUse">
<stop stop-color="#44BCF0"/>
<stop offset="0.378795" stop-color="#7298F8"/>
<stop offset="1" stop-color="#A099FF"/>
</linearGradient>
<linearGradient id="paint4_linear_1_109" x1="255.531" y1="184.077" x2="194.739" y2="-88.2464" gradientUnits="userSpaceOnUse">
<stop stop-color="#44BCF0"/>
<stop offset="0.378795" stop-color="#7298F8"/>
<stop offset="1" stop-color="#A099FF"/>
</linearGradient>
</defs>
</svg>
