
<svg width="122" height="75" viewBox="0 0 122 75" fill="none" xmlns="http://www.w3.org/2000/svg">
<path d="M64.0966 0.950195C64.8405 1.10481 65.5426 1.41739 66.1558 1.8669C66.8421 2.41034 67.3678 3.13075 67.6766 3.95084C69.626 8.82812 71.5753 13.7025 73.5247 18.5738C75.6819 23.9915 77.85 29.4102 80.0288 34.8298C81.1643 37.6713 82.2939 40.5157 83.447 43.3513C83.6923 43.9313 83.8188 44.5548 83.8188 45.1847C83.8188 45.8146 83.6923 46.4381 83.447 47.0181L73.5394 71.7336C72.8834 73.3696 71.695 74.3865 69.9476 74.6518C67.7737 74.9789 65.8292 73.906 65.0438 71.9989C63.1847 67.4272 61.3667 62.8408 59.534 58.2573L50.2147 34.9418C47.4554 28.0228 44.6922 21.1058 41.925 14.1908C41.0072 11.8946 40.1188 9.58664 39.1599 7.30815C38.8958 6.68862 38.7709 6.01849 38.794 5.34521C38.8171 4.67194 38.9876 4.01199 39.2936 3.4121C39.5995 2.81222 40.0333 2.28707 40.5643 1.87385C41.0953 1.46064 41.7105 1.16946 42.3663 1.02094C42.4457 1.00325 42.5222 0.973776 42.5987 0.950195H64.0966Z" fill="url(#paint0_linear_4620_26215)"/>
<path d="M25.4857 0.950195C25.7298 1.01799 25.974 1.07694 26.2123 1.15947C26.8326 1.35333 27.4017 1.68406 27.8777 2.12734C28.3537 2.57061 28.7244 3.11516 28.9627 3.72093C31.0906 9.00301 33.2086 14.289 35.3168 19.579C37.4505 24.9121 39.5842 30.2463 41.7179 35.5814C42.7612 38.1969 43.8095 40.8115 44.8626 43.425C45.0983 43.9847 45.2198 44.586 45.2198 45.1935C45.2198 45.801 45.0983 46.4024 44.8626 46.9621C43.6859 49.8979 42.5092 52.8327 41.3325 55.7665C39.1753 61.1371 37.0181 66.5076 34.8608 71.8781C34.5221 72.7143 33.9432 73.4308 33.1973 73.9367C32.4515 74.4426 31.5725 74.7151 30.6719 74.7196C29.7177 74.7364 28.7817 74.4575 27.9918 73.9209C27.202 73.3843 26.5969 72.6162 26.2593 71.7219C24.2649 66.6608 22.2292 61.6146 20.2112 56.5624C17.5068 49.722 14.7887 42.8866 12.0568 36.056C9.27595 29.1036 6.49605 22.1503 3.71713 15.1959C2.66401 12.5637 1.61971 9.92561 0.551873 7.29636C0.085317 6.20084 0.0626913 4.96636 0.488789 3.85442C0.914886 2.74247 1.75624 1.8404 2.83463 1.33928C3.22585 1.18085 3.62794 1.05082 4.03778 0.950195L25.4857 0.950195Z" fill="url(#paint1_linear_4620_26215)"/>
<path d="M121.68 45.9028C121.091 47.8925 120.209 49.7701 119.459 51.689C117.288 57.1479 115.105 62.6039 112.91 68.0569C112.407 69.3067 111.895 70.5535 111.407 71.8092C111.063 72.6673 110.471 73.4022 109.705 73.9189C108.94 74.4356 108.038 74.7103 107.115 74.7074C106.192 74.7046 105.292 74.4243 104.53 73.9029C103.768 73.3814 103.179 72.6428 102.841 71.7827L93.3158 47.9603L85.079 27.3831C82.3903 20.6646 79.7036 13.947 77.0188 7.23045C76.7635 6.61631 76.6458 5.95353 76.674 5.28886C76.7022 4.62418 76.8755 3.97379 77.1818 3.38355C77.4882 2.79331 77.92 2.27759 78.4468 1.87275C78.9737 1.46792 79.5828 1.18382 80.2311 1.0405C80.3194 1.01987 80.4047 0.990396 80.4929 0.963867H101.991C102.058 0.9845 102.123 1.01103 102.191 1.02577C102.945 1.18343 103.647 1.5292 104.232 2.03105C104.817 2.5329 105.267 3.1746 105.539 3.89672C106.79 7.04082 108.043 10.1761 109.298 13.3025C112.583 21.5125 115.865 29.7225 119.144 37.9326C120.006 40.0961 120.965 42.2213 121.671 44.4438L121.68 45.9028Z" fill="url(#paint2_linear_4620_26215)"/>
<defs>
<linearGradient id="paint0_linear_4620_26215" x1="35.4592" y1="6.9397" x2="87.2453" y2="58.6222" gradientUnits="userSpaceOnUse">
<stop stop-color="#FF00A8"/>
<stop offset="1" stop-color="#6200C6"/>
</linearGradient>
<linearGradient id="paint1_linear_4620_26215" x1="-3.13113" y1="6.92201" x2="48.6432" y2="58.5927" gradientUnits="userSpaceOnUse">
<stop stop-color="#FF00A8"/>
<stop offset="1" stop-color="#6200C6"/>
</linearGradient>
<linearGradient id="paint2_linear_4620_26215" x1="73.3446" y1="6.92095" x2="125.122" y2="58.5946" gradientUnits="userSpaceOnUse">
<stop stop-color="#FF00A8"/>
<stop offset="1" stop-color="#6200C6"/>
</linearGradient>
</defs>
</svg>
