<svg width="47" height="41" viewbox="0 0 47 41" fill="none" xmlns="http://www.w3.org/2000/svg">
  <path fill-rule="evenodd" clip-rule="evenodd" d="M10.4146 16.8902L23.3182 30.0254L36.084 17.0305L46.5509 27.6852L34.3897 40.0647L31.2612 36.9649L40.3772 27.6852L36.084 23.3149L23.3182 36.3099L10.4146 23.1747L6.17365 27.4918L15.4283 36.9126L12.2998 40.0124L0 27.4918L10.4146 16.8902Z" fill="white"/>
  <path fill-rule="evenodd" clip-rule="evenodd" d="M36.1362 23.1744L23.2326 10.0393L10.4669 23.0342L0 12.3794L12.1611 0L15.2896 3.09981L6.17364 12.3794L10.4669 16.7498L23.2326 3.75481L36.1362 16.89L40.3772 12.5728L31.1225 3.15207L34.251 0.052256L46.5508 12.5728L36.1362 23.1744Z" fill="white"/>
  <path fill-rule="evenodd" clip-rule="evenodd" d="M21.3066 39.7561V31.4804H25.5203V39.7561H21.3066Z" fill="white"/>
  <path fill-rule="evenodd" clip-rule="evenodd" d="M21.3066 8.58425V0.308594H25.5203V8.58425H21.3066Z" fill="white"/>
</svg>