<svg width="128" height="128" viewBox="0 0 128 128" fill="none" xmlns="http://www.w3.org/2000/svg">
<rect width="128" height="128" fill="#0080BC"/>
<path d="M63.0193 22.2941L39.4613 60.9188C39.2765 61.2217 38.8473 61.2555 38.6181 60.9843C36.5441 58.5306 28.8176 48.0916 38.3784 38.5771C47.1027 29.895 58.215 23.7049 62.3334 21.5655C62.8006 21.3228 63.2928 21.8457 63.0193 22.2941Z" fill="#F6F6F6"/>
<path d="M61.7168 106.393C62.1869 106.721 62.7662 106.162 62.4511 105.684C57.1892 97.7094 39.6975 71.1752 37.2812 67.192C34.898 63.2632 30.2105 56.734 29.8194 51.1479C29.7804 50.5902 29.0065 50.477 28.8118 51.0014C28.4979 51.8472 28.1636 52.8567 27.8521 54.0099C23.9193 68.5672 29.6309 84.0145 42.0353 92.6661L61.7168 106.393V106.393Z" fill="#F6F6F6"/>
<path d="M64.9535 105.706L88.5116 67.0816C88.6964 66.7788 89.1256 66.745 89.3548 67.0161C91.4287 69.4699 99.1553 79.9089 89.5945 89.4234C80.8702 98.1054 69.7579 104.296 65.6395 106.435C65.1723 106.678 64.68 106.155 64.9535 105.706Z" fill="#F6F6F6"/>
<path d="M66.2811 21.6021C65.811 21.2742 65.2317 21.8334 65.5468 22.311C70.8087 30.2858 88.3004 56.8201 90.7167 60.8032C93.1 64.732 97.7874 71.2612 98.1785 76.8473C98.2175 77.405 98.9914 77.5182 99.1861 76.9938C99.5 76.148 99.8343 75.1385 100.146 73.9853C104.079 59.428 98.367 43.9808 85.9626 35.3291L66.2811 21.6021Z" fill="#F6F6F6"/>
</svg>
