<svg width="500" height="500" viewBox="0 0 500 500" fill="none" xmlns="http://www.w3.org/2000/svg">
<rect width="500" height="500" fill="#2535A0"/>
<path fill-rule="evenodd" clip-rule="evenodd" d="M424 300.29C248.336 323.273 122.956 350.876 121.102 237.574C121.102 237.574 124.935 193.673 178.722 190.909C178.722 190.909 180.536 151.917 221.628 147.502C243.72 145.109 268.821 167.885 271.541 191.858C271.541 191.858 325.905 181.79 328.255 234.851C329.079 253.336 324.916 284.776 272.489 283.415C272.489 283.415 242.154 279.289 238.032 232.334C229.5 323.231 360.774 317.95 362.67 235.387C363.495 199.697 340.661 162.975 289.223 169.866C261.031 98.8561 185.976 102.941 158.031 168.793C118.093 168.793 87.5516 199.573 88.005 239.761C89.53 369.113 269.357 330.122 424 300.29Z" fill="white"/>
</svg>
