<svg width="16" height="16" viewBox="0 0 32 32" fill="none" xmlns="http://www.w3.org/2000/svg"><path d="M32 16C32 13.3893 30.1303 11.2095 27.6575 10.7356V10.6322C30.1303 10.1583 32 7.97846 32 5.3678C32 2.40388 29.5961 0.00861605 26.6408 0.00861605C24.0474 0.00861605 21.8934 1.84383 21.385 4.28218H21.2558C20.7474 1.83522 18.5848 0 16 0C13.4152 0 11.2526 1.83522 10.7442 4.27356H10.615C10.1152 1.83522 7.95261 0 5.35918 0C2.40388 0 0 2.40388 0 5.35918C0 7.96984 1.86968 10.1497 4.34249 10.6236V10.727C1.86968 11.2095 0 13.3807 0 16C0 18.6193 1.86968 20.7905 4.34249 21.2644V21.3678C1.86968 21.8417 0 24.0215 0 26.6322C0 29.5961 2.40388 31.9914 5.35918 31.9914C7.95261 31.9914 10.1152 30.1562 10.615 27.7092H10.7442C11.2439 30.1476 13.4066 31.9914 16 31.9914C18.5934 31.9914 20.7561 30.1562 21.2558 27.7092H21.385C21.8848 30.1476 24.0474 31.9914 26.6408 31.9914C29.6047 31.9914 32 29.5875 32 26.6322C32 24.0215 30.1303 21.8417 27.6575 21.3678V21.2644C30.1303 20.7905 32 18.6107 32 16ZM24.6074 23.3495C24.6074 24.0474 24.0474 24.6074 23.3495 24.6074H8.65051C7.95261 24.6074 7.39257 24.0474 7.39257 23.3495V8.65051C7.39257 7.95261 7.95261 7.39257 8.65051 7.39257H23.3495C24.0474 7.39257 24.6074 7.95261 24.6074 8.65051V23.3495Z" fill="currentColor"></path></svg>
