<svg width="500" height="500" viewBox="0 0 500 500" fill="none" xmlns="http://www.w3.org/2000/svg">
<rect width="500" height="500" fill="#1E1E1E"/>
<path fill-rule="evenodd" clip-rule="evenodd" d="M125.092 253.861C125.092 264.119 133.396 272.433 143.639 272.433H180.731C190.974 272.433 199.277 264.119 199.277 253.861V179.572C199.277 169.315 207.581 161 217.823 161C228.066 161 236.369 169.315 236.369 179.572V253.861C236.369 264.119 244.673 272.433 254.916 272.433H292.008C302.25 272.433 310.554 264.119 310.554 253.861V179.572C310.554 169.315 318.857 161 329.1 161C339.343 161 347.647 169.315 347.647 179.572V291.006C347.647 301.263 339.343 309.578 329.1 309.578H106.546C96.3034 309.578 88 301.263 88 291.006L88 179.572C88 169.315 96.3034 161 106.546 161C116.789 161 125.092 169.315 125.092 179.572V253.861ZM388.271 314C401.929 314 413 302.914 413 289.237C413 275.561 401.929 264.475 388.271 264.475C374.615 264.475 363.543 275.561 363.543 289.237C363.543 302.914 374.615 314 388.271 314Z" fill="white"/>
</svg>
