<svg viewBox="0 0 2170 801" focusable="false" class="chakra-icon chakra-icon css-1hu0a8z"><g><path d="M861.969 264.437H725.183V178.286H1097.37V264.437H959.893V663.535H861.969V264.437Z" fill="black"></path><path d="M1424.2 330.174V663.835H1337.21V623.486H1335.53C1311.21 654.204 1277.21 669.554 1233.54 669.554C1211.12 669.749 1188.92 665.535 1168.19 657.214C1148.62 649.371 1130.97 637.597 1116.38 622.654C1101.35 607.003 1089.79 588.502 1082.43 568.283C1066.01 522.995 1066.01 473.581 1082.43 428.293C1089.83 407.968 1101.23 389.272 1115.99 373.249C1130.6 357.81 1148.32 345.506 1168.05 337.114C1187.75 328.722 1209.03 324.402 1230.54 324.455C1249.56 323.818 1268.5 327.394 1285.92 334.918C1303.35 342.443 1318.8 353.721 1331.14 367.902H1332.52V330.244L1424.2 330.174ZM1311.67 564.07C1320.04 555.253 1326.56 544.913 1330.82 533.635C1335.09 522.34 1337.04 510.354 1336.52 498.332C1337.37 473.864 1328.65 449.999 1312.13 431.603C1304.51 422.999 1295.04 416.13 1284.38 411.526C1273.74 406.923 1262.18 404.675 1250.55 404.94C1238.85 404.675 1227.22 406.817 1216.42 411.243C1205.62 415.652 1195.9 422.273 1187.89 430.63C1179.36 439.748 1172.76 450.441 1168.47 462.073C1164.17 473.705 1162.27 486.045 1162.88 498.403C1161.81 522.588 1170.56 546.223 1187.2 564.14C1195.33 572.178 1205.01 578.57 1215.69 582.925C1226.38 587.28 1237.82 589.529 1249.4 589.529C1260.96 589.529 1272.42 587.28 1283.09 582.925C1293.77 578.57 1303.45 572.178 1311.6 564.14L1311.67 564.07Z" fill="black"></path><path d="M1504.1 160.67H1595.56V663.836H1504.1V160.67Z" fill="black"></path><path d="M1682.22 160.67H1773.6V663.836H1682.22V160.67Z" fill="black"></path><mask height="475" id="mask0_38_2" maskUnits="userSpaceOnUse" width="359" x="1811" y="326"><path d="M1811.34 326.173H2169.4V800.267H1811.34V326.173Z" fill="white"></path></mask><g mask="url(#mask0_38_2)"><path d="M2168.32 330.174L1984.9 799.011H1890.98L1951.72 643.21L1815.54 330.174H1911.07L1994.68 536.734H1995.67L2073.8 330.174H2168.32Z" fill="black"></path></g><path clip-rule="evenodd" d="M442.085 416.342V289.116L66.0205 76.7139V37.6752L476.538 269.535V435.799L442.085 416.342ZM345.134 472.413L310.681 452.955V684.727L345.134 704.184V472.413Z" fill="black" fill-rule="evenodd"></path><path clip-rule="evenodd" d="M507.982 378.667V251.441L131.917 39.0387V0L542.435 231.86V398.124L507.982 378.667ZM411.031 434.737L376.596 415.28V647.052L411.031 666.509V434.737Z" fill="black" fill-rule="evenodd"></path><mask height="672" id="mask1_38_2" maskUnits="userSpaceOnUse" width="411" x="0" y="72"><path d="M0 72.3586H410.836V743.152H0V72.3586Z" fill="white"></path></mask><g mask="url(#mask1_38_2)"><path d="M410.748 306.591V472.855L279.344 398.602V741.24L131.705 657.798V315.248L0.230469 240.995V74.7308L410.748 306.591Z" fill="black"></path></g></g></svg>
