<svg width="328" height="328" viewBox="0 0 328 328" fill="none" xmlns="http://www.w3.org/2000/svg">
<mask id="mask0_13_80" style="mask-type:luminance" maskUnits="userSpaceOnUse" x="17" y="0" width="295" height="328">
<path d="M312 0H17V328H312V0Z" fill="white"/>
</mask>
<g mask="url(#mask0_13_80)">
<path d="M55.423 77.1727C58.4917 71.4759 62.9204 66.6192 68.3185 63.0311L158.912 0L66.088 152.931C66.088 152.931 57.9776 139.275 54.8145 132.365C50.8729 123.677 48.885 114.236 48.99 104.702C49.0951 95.1681 51.2908 85.7724 55.423 77.1727ZM18.0338 182.669C19.0567 197.294 23.2038 211.532 30.1975 224.43C37.1912 237.329 46.87 248.589 58.5859 257.458L158.79 327.075C158.79 327.075 96.0965 237.054 43.2167 147.477C37.8631 138.013 34.2641 127.666 32.592 116.931C31.8518 112.07 31.8518 107.125 32.592 102.264C31.2132 104.81 28.5368 110.022 28.5368 110.022C23.175 120.917 19.5233 132.568 17.7094 144.568C16.6653 157.252 16.7739 170.004 18.0338 182.669ZM273.512 194.79C270.267 187.881 262.238 174.224 262.238 174.224L169.577 327.075L260.17 264.084C265.568 260.496 269.997 255.64 273.066 249.943C277.198 241.343 279.393 231.947 279.499 222.414C279.604 212.88 277.616 203.438 273.674 194.75L273.512 194.79ZM310.292 144.446C309.269 129.822 305.122 115.583 298.129 102.685C291.135 89.7869 281.456 78.5263 269.74 69.6575L169.698 0C169.698 0 232.351 90.0213 285.272 179.598C290.611 189.065 294.196 199.412 295.856 210.144C296.596 215.005 296.596 219.95 295.856 224.811C297.235 222.265 299.911 217.053 299.911 217.053C305.273 206.158 308.925 194.507 310.738 182.507C311.796 169.824 311.701 157.072 310.455 144.406L310.292 144.446Z" fill="url(#paint0_linear_13_80)"/>
</g>
<defs>
<linearGradient id="paint0_linear_13_80" x1="213.139" y1="365.839" x2="-120.913" y2="-163.517" gradientUnits="userSpaceOnUse">
<stop stop-color="#44BCF0"/>
<stop offset="0.378795" stop-color="#7298F8"/>
<stop offset="1" stop-color="#A099FF"/>
</linearGradient>
</defs>
</svg>
