<svg width="184" height="99" viewBox="0 0 184 99" fill="none" xmlns="http://www.w3.org/2000/svg">
<rect width="183.856" height="98.3699" rx="6.73668" stroke="black" style="stroke:black;stroke-opacity:1;"/>
<path d="M47.6921 80.1719C44.8002 80.1719 42.3787 79.0427 41.9988 76.3519C41.9773 76.2003 42.0878 76.0641 42.2397 76.0447L44.996 75.6924C45.1628 75.6711 45.3103 75.7987 45.3325 75.9654C45.504 77.2532 46.4628 77.8369 47.7675 77.8369C49.1986 77.8369 49.9267 77.3097 49.9267 76.3807C49.9267 75.5522 48.9726 75.2509 46.9892 74.7739C44.5789 74.1964 42.3695 73.4432 42.3695 70.8572C42.3695 68.0955 44.8049 67.0159 47.5164 67.0159C50.1902 67.0159 52.4875 67.8866 52.9273 70.5395C52.9521 70.6889 52.8477 70.8269 52.6984 70.8524L50.0416 71.3055C49.8734 71.3342 49.7192 71.2089 49.6939 71.0402C49.5167 69.858 48.7226 69.3257 47.5666 69.3257C46.5372 69.3257 45.6836 69.7023 45.6836 70.581C45.6836 71.4347 46.5874 71.736 48.2696 72.1126C50.5041 72.6147 53.291 73.2173 53.291 76.205C53.291 79.2178 50.6296 80.1719 47.6921 80.1719Z" fill="#191919" style="fill:#191919;fill:color(display-p3 0.0993 0.0993 0.0993);fill-opacity:1;"/>
<path d="M40.017 68.212C41.0213 69.2163 41.1469 70.572 41.1469 72.204V79.7775C41.1469 79.9351 41.0191 80.0629 40.8614 80.0629H37.8922C37.7346 80.0629 37.6068 79.9351 37.6068 79.7775V72.5053C37.6068 71.3504 37.5064 70.7478 36.954 70.2206C36.5021 69.7937 36.0753 69.7184 35.3221 69.7184C34.2425 69.7184 32.9871 70.4465 32.9871 73.0325V79.7775C32.9871 79.9351 32.8593 80.0629 32.7017 80.0629H29.7576C29.6 80.0629 29.4722 79.9351 29.4722 79.7775V67.6187C29.4722 67.461 29.6 67.3333 29.7576 67.3333H32.6766C32.8342 67.3333 32.962 67.461 32.962 67.6187V68.5865C32.962 68.7232 33.1766 68.7723 33.2495 68.6566C33.9842 67.4903 35.2546 67.032 36.6778 67.032C38.2847 67.032 39.2136 67.4086 40.017 68.212Z" fill="#191919" style="fill:#191919;fill:color(display-p3 0.0993 0.0993 0.0993);fill-opacity:1;"/>
<path d="M26.691 68.6312C27.8892 69.8496 28.5029 71.6907 28.5725 74.0189C28.5772 74.1742 28.454 74.3027 28.2988 74.3076L19.6824 74.58C19.5235 74.585 19.3986 74.7197 19.4128 74.878C19.5845 76.7918 20.6114 77.7408 22.4054 77.6841C23.9053 77.6367 24.6847 76.9767 24.952 75.8204C24.985 75.6778 25.1123 75.5736 25.2585 75.5819L28.0871 75.7416C28.2632 75.7515 28.3885 75.918 28.3417 76.088C27.6208 78.7076 25.594 80.0701 22.484 80.1684C20.5266 80.2303 18.9509 79.6521 17.8644 78.6565C16.6226 77.5152 15.968 75.878 15.9014 73.7701C15.8379 71.7625 16.336 70.0387 17.5284 68.8204C18.5984 67.7064 20.0858 67.0816 22.0432 67.0198C24.0257 66.9571 25.6013 67.5353 26.691 68.6312ZM22.1201 69.4539C21.0913 69.4864 20.3731 69.8106 19.9161 70.453C19.6326 70.8422 19.4585 71.3169 19.3782 71.8624C19.3535 72.0307 19.4914 72.1746 19.6614 72.1692L24.6245 72.0123C24.7929 72.007 24.921 71.8574 24.8906 71.6917C24.7737 71.0536 24.5536 70.5175 24.1507 70.1182C23.658 69.6314 23.0235 69.4254 22.1201 69.4539Z" fill="#191919" style="fill:#191919;fill:color(display-p3 0.0993 0.0993 0.0993);fill-opacity:1;"/>
<path d="M33.9349 18.4063L21.8452 38.2679C21.7503 38.4237 21.5301 38.441 21.4124 38.3016C20.3481 37.0399 16.3829 31.6719 21.2894 26.7793C25.7667 22.3149 31.4694 19.1318 33.5829 18.0317C33.8227 17.9069 34.0753 18.1758 33.9349 18.4063Z" fill="#191919" style="fill:#191919;fill:color(display-p3 0.0993 0.0993 0.0993);fill-opacity:1;"/>
<path d="M33.2597 61.6516C33.501 61.8202 33.7983 61.5327 33.6366 61.2871C30.9362 57.1863 21.9597 43.5419 20.7197 41.4936C19.4966 39.4734 17.091 36.1159 16.8904 33.2434C16.8703 32.9567 16.4732 32.8985 16.3733 33.1681C16.2121 33.603 16.0406 34.1221 15.8807 34.7151C13.8625 42.2008 16.7936 50.1441 23.1594 54.5929L33.2597 61.6517V61.6516Z" fill="#191919" style="fill:#191919;fill:color(display-p3 0.0993 0.0993 0.0993);fill-opacity:1;"/>
<path d="M34.9217 61.2946L47.0114 41.433C47.1062 41.2773 47.3265 41.2599 47.4441 41.3994C48.5084 42.6611 52.4736 48.0291 47.5671 52.9216C43.0899 57.3861 37.3872 60.5692 35.2737 61.6693C35.0339 61.7941 34.7813 61.5252 34.9217 61.2946Z" fill="#191919" style="fill:#191919;fill:color(display-p3 0.0993 0.0993 0.0993);fill-opacity:1;"/>
<path d="M35.5968 18.0505C35.3555 17.8819 35.0582 18.1694 35.2199 18.415C37.9203 22.5158 46.8968 36.1603 48.1368 38.2085C49.3599 40.2287 51.7655 43.5862 51.9661 46.4587C51.9862 46.7454 52.3833 46.8037 52.4832 46.534C52.6444 46.0991 52.8159 45.58 52.9758 44.987C54.994 37.5013 52.0629 29.558 45.6971 25.1092L35.5968 18.0505Z" fill="#191919" style="fill:#191919;fill:color(display-p3 0.0993 0.0993 0.0993);fill-opacity:1;"/>
<path d="M80.462 27.8651C80.174 23.2571 77.006 22.1051 73.838 22.1051L75.182 17.7851H99.086L97.742 22.1051C91.598 22.1051 88.718 24.4091 89.006 29.5931L91.118 67.8011L115.79 30.7451C119.822 24.6011 118.478 22.1051 111.662 22.1051L113.006 17.7851H136.238L134.894 22.1051C130.478 22.1051 126.926 24.1211 123.662 29.0171L88.814 80.6651H83.918L80.462 27.8651ZM139.765 58.8731C149.653 49.9451 158.677 42.5531 158.677 33.2411C158.677 27.8651 154.741 24.2171 149.941 24.2171C143.509 24.2171 139.573 27.3851 134.773 33.9131L131.797 31.8971C137.461 22.9691 143.893 16.8251 153.781 16.8251C161.365 16.8251 167.029 22.8731 167.029 30.6491C167.029 41.5931 157.237 49.4651 144.757 59.8331L130.165 72.0251H146.101C152.821 72.0251 155.125 70.5851 159.157 64.7291H163.669L155.029 80.1851H119.413L120.661 75.9611L139.765 58.8731Z" fill="#191919" style="fill:#191919;fill:color(display-p3 0.0993 0.0993 0.0993);fill-opacity:1;"/>
</svg>
