<svg width="295" height="328" viewBox="0 0 295 328" fill="none" xmlns="http://www.w3.org/2000/svg">
<g clip-path="url(#clip0_1206_59)">
<path d="M38.423 77.1727C41.4917 71.4759 45.9204 66.6192 51.3185 63.0311L141.912 0L49.088 152.931C49.088 152.931 40.9776 139.275 37.8145 132.365C33.8729 123.677 31.885 114.236 31.99 104.702C32.0951 95.1681 34.2908 85.7724 38.423 77.1727ZM1.03383 182.669C2.05669 197.294 6.20381 211.532 13.1975 224.43C20.1912 237.329 29.87 248.589 41.5859 257.458L141.79 327.075C141.79 327.075 79.0965 237.054 26.2167 147.477C20.8631 138.013 17.2641 127.666 15.592 116.931C14.8518 112.07 14.8518 107.125 15.592 102.264C14.2132 104.81 11.5368 110.022 11.5368 110.022C6.17499 120.917 2.52334 132.568 0.709417 144.568C-0.33466 157.252 -0.22608 170.004 1.03383 182.669ZM256.512 194.79C253.267 187.881 245.238 174.224 245.238 174.224L152.577 327.075L243.17 264.084C248.568 260.496 252.997 255.64 256.066 249.943C260.198 241.343 262.393 231.947 262.499 222.414C262.604 212.88 260.616 203.438 256.674 194.75L256.512 194.79ZM293.292 144.446C292.269 129.822 288.122 115.583 281.129 102.685C274.135 89.7869 264.456 78.5263 252.74 69.6575L152.698 0C152.698 0 215.351 90.0213 268.272 179.598C273.611 189.065 277.196 199.412 278.856 210.144C279.596 215.005 279.596 219.95 278.856 224.811C280.235 222.265 282.911 217.053 282.911 217.053C288.273 206.158 291.925 194.507 293.738 182.507C294.796 169.824 294.701 157.072 293.455 144.406L293.292 144.446Z" fill="#262626"/>
</g>
<defs>
<clipPath id="clip0_1206_59">
<rect width="295" height="328" fill="white"/>
</clipPath>
</defs>
</svg>
